<svg xmlns="http://www.w3.org/2000/svg" height="800" width="1200" version="1.1" id="svg3049" xml:space="preserve" clip-rule="evenodd" fill-rule="evenodd" image-rendering="optimizeQuality" shape-rendering="geometricPrecision" text-rendering="geometricPrecision" viewBox="-80.2242 -36.3455 695.2764 218.073"><defs id="defs3051"><style id="style3053" type="text/css">.fil2{fill:#ce4a63}.fil1{fill:#ef945a}.fil6{fill:#efad84}.fil5{fill:#f7ceb5}.fil0{fill:#fff}</style></defs><g transform="translate(-6.32 -7.789)" id="g3935"><path id="_160380112" class="fil0" d="M6.32 153.171V7.789h534.828v145.382H6.32z" fill="#fff"/><path id="_160380232" class="fil1" d="M108.314 147.447c142.168 0 284.337.05 426.556.1l-.151.303c-142.27-.102-284.537-.151-426.757-.202.1-.1.2-.15.352-.201z" fill="#ef945a"/><path id="_160380328" class="fil2" d="M12.598 147.698v-.05c22.95 0 45.95 0 68.949.05h-68.95z" fill="#ce4a63"/><path id="_160380064" class="fil2" d="M12.598 14.117v133.581h-.201V14.118h.2z" fill="#ce4a63"/><path id="_160931448" d="M81.547 147.698c-23-.05-46-.05-68.95-.05V14.215c22.95-.05 45.95-.1 68.95-.1 2.361.151 4.772.301 7.182.502.201.202 3.013.503 3.214.704 13.006 2.41 23.602 8.486 33.546 17.023 4.821 4.972 8.688 9.995 12.404 15.87a609.75 609.75 0 004.017 8.286c1.859 6.126 3.264 11.65 4.219 17.928.05 3.314.15 6.68.251 10.043a385.777 385.777 0 00-.854 7.684c-2.06 10.043-5.675 18.63-11.249 27.168-2.812 3.666-2.812 3.666-3.013 4.118-7.383 7.834-14.513 13.46-24.004 18.33-2.361.854-4.67 1.758-6.98 2.661-6.077 1.808-12.355 3.013-18.733 3.265z" fill="#ad2931"/><path id="_160931544" d="M108.314 147.447c8.787-3.917 16.371-8.939 23.602-15.317.301-.502 2.812-2.861 7.08-7.883 3.918-5.475 7.384-10.898 10.346-16.974.854-2.361 1.758-4.72 2.662-7.031 4.972-16.622 4.72-32.692-.503-49.214a870.424 870.424 0 00-2.56-6.58c-4.922-9.64-10.797-17.676-18.582-25.209a538.1 538.1 0 00-6.026-5.022c136.745-.05 273.54-.1 410.336-.1.05.05.1.1.201.151v133.28c-142.219-.05-284.387-.101-426.556-.101z" fill="#f60" fill-opacity="1"/><path id="_160931640" class="fil0" d="M79.187 133.586c-2.812-19.686-6.026-39.522-8.135-59.257 3.113-1.557 4.018-4.922 4.97-8.086.604-3.415 1.508-7.181 1.256-10.696-5.975.15-12.504.753-17.928 3.365-6.679 0-7.13-9.442-.15-10.044 5.976 2.31 11.952 3.164 18.33 3.365-.301-6.278-.954-12.203-3.314-18.029 0-1.708.401-2.662 1.506-3.917 4.018-2.612 7.834-.904 8.487 3.817-2.461 6.026-2.812 11.5-3.314 17.928.1.05.2.1.35.2 6.128-.3 12.304-.853 17.98-3.364 6.88.653 6.528 10.044-.201 10.044-5.424-2.712-12.103-3.115-18.08-3.265.402 3.716.804 17.326 6.53 18.731-.303 3.013-.503 3.214-6.329 46.704-.2.2-1.757 12.153-1.958 12.504z" fill="#fff"/><path id="_160931712" class="fil0" d="M397.673 122.188c-8.789-.804-14.563-3.817-19.535-11.3a195.997 195.997 0 01-2.16-4.67c-4.72-18.229 4.22-36.961 23.854-39.22 5.474 0 10.597 1.306 15.769 3.012-.1.754-.1.754-3.113 8.638-1.508-.15-1.508-.15-4.871-.854h-5.876c-4.068 1.005-6.83 2.21-9.692 5.323-5.625 8.236-6.58 19.384 2.009 26.014 1.054.502 2.159 1.004 3.263 1.506 5.122.704 10.044.352 15.015-1.205 1.055-.502 1.055-.502 1.407-.502 1.055 2.01 2.962 4.62 3.365 6.83-6.077 3.616-12.354 5.624-19.435 6.428z" fill="#fff"/><path id="_160931784" class="fil0" d="M242.247 57.305h-4.018c-8.988 0-16.32 5.172-21.292 12.203-1.507 3.214-2.21 5.373-2.41 5.575-1.809 7.281-1.307 13.91 1.104 20.89 3.566 6.83 7.432 10.446 14.462 13.158 1.507.251 3.015.552 4.571.853 3.163 0 8.286.402 10.998-.954 0-5.624.05-11.249.1-16.873 0-.151 0-.151-12.906-.352-.05-3.566-.05-7.13-.05-10.696v-.1h26.013c0 11.901.05 23.802.1 35.755a1187.7 1187.7 0 00-7.482 2.56c-4.32 1.005-8.336 2.01-12.805 2.512-6.128.251-11.25-.302-17.125-2.01-11.249-4.67-17.928-12.604-21.293-24.255-1.708-9.19-1.708-17.024 1.004-26.114 1.808-4.47 4.27-8.135 7.182-12.001 5.373-5.374 10.696-8.086 17.877-10.647 10.446-2.26 20.44-1.005 30.633 1.808-1.204 3.365-2.36 6.78-3.514 10.195-6.83-1.106-6.83-1.106-11.149-1.507z" fill="#fff"/><path d="M291.719 67.156c-6.448.237-12.722 2.708-19.25 5.313.954 2.56 1.933 5.17 2.937 7.781 2.812-.904 5.606-1.802 8.469-2.656 3.063-.703 6.637-.915 9.75-.313 4.922 2.11 5.112 6.024 5.313 10.844-8.89.553-17.262.71-24.844 5.781-1.558 1.607-3.333 3.136-4.438 5.094-1.657 4.369-1.454 8.018-.5 12.438 2.46 5.222 5.14 7.972 10.563 10.03 7.833 1.457 13.306-1.651 19.031-6.874.1 0 .193.075.344.125.803 5.374 1 5.574 1 5.875 3.766 0 7.546.044 11.312.093-.05-12.705-.105-25.42-.156-38.125-1.055-5.724-2.853-9.603-7.625-12.968-4.086-1.94-8.038-2.58-11.906-2.438zm7.187 29.219c.05 3.164.076 6.38.125 9.594-2.26 3.817-8.02 5.61-12.187 6.062-2.862-.803-4.82-1.587-6.125-4.5-1.708-10.444 10.804-10.955 18.187-11.156z" id="_160943568" fill="#fff"/><path d="M470.844 67.063c-6.227.702-12.22 2.807-17.844 5.468-.402 1.206 1.934 6.205 2.938 7.813 5.675-2.11 10.442-3.469 16.468-3.469.201.2.179.223 2.188.625 4.42 2.31 4.38 6.017 4.781 10.688-10.847.702-25.544.602-30.063 12.906-2.109 10.245 3.041 19.35 13.688 20.906 6.53 0 11.593-2.968 16.063-7.438a1.49 1.49 0 01.468-.062c.754 5.274.743 5.277 1.094 6.281 3.666-.05 7.347-.093 11.063-.093 0-12.003-.02-23.955.03-35.907-.652-7.282-2.51-11.57-8.687-15.687-3.414-1.356-4.893-1.55-5.094-1.75-2.36-.1-4.732-.181-7.093-.281zm8.437 29.25c0 3.314.044 6.698.094 10.062-4.47 3.717-12.954 9.079-17.625 2.5-4.92-10.897 10.4-12.362 17.531-12.563z" id="_160943640" fill="#fff"/><path id="_160943712" class="fil1" d="M351.723 120.781c4.218-.05 8.437-.1 12.705-.1-.703.702-11.099.1-12.705.1z" fill="#ef945a"/><path id="_160943808" class="fil1" d="M480.634 120.781c3.666-.05 7.332-.1 11.048-.1h.151c-.151.05-.301.1-.452.2-3.616-.05-7.181-.1-10.747-.1z" fill="#ef945a"/><path id="_160943784" class="fil1" d="M300.098 120.58c3.767 0 7.533.05 11.3.1-11.5 0-11.5 0-11.3-.1z" fill="#ef945a"/><path id="_160943952" class="fil1" d="M324.354 41.235c0 26.465.05 52.93.1 79.446h13.057-13.407c.05-26.516.15-52.981.25-79.446z" fill="#ef945a"/><path id="_160943928" class="fil1" d="M427.051 120.68h13.057c-13.057.151-13.057.151-13.057 0z" fill="#ef945a"/><path id="_160201728" class="fil1" d="M351.371 68.353v52.428c-.15 0-.15 0 0-52.428z" fill="#ef945a"/><path id="_160201800" class="fil0" d="M351.371 120.781V68.353h12.906l.151 52.328c-4.268 0-8.487.05-12.705.1h-.352z" fill="#fff"/><path id="_160201896" class="fil0" d="M324.354 41.235v-.301h13.158v79.747h-13.058c-.05-26.516-.1-52.981-.1-79.446z" fill="#fff"/><path id="_160201968" class="fil0" d="M427.051 120.68V68.453c4.269-.05 8.588-.1 12.906-.1l.151 52.327h-13.057z" fill="#fff"/><path id="_160202040" class="fil5" d="M491.682 120.68c0-12.002 0-23.954.05-35.906 0 11.952.05 23.904.101 35.906h-.151z" fill="#f7ceb5"/><path id="_160202136" class="fil5" d="M258.919 116.764c-.05-11.953-.1-23.854-.1-35.756 0-.05.05-.1.1-.1v35.856z" fill="#f7ceb5"/><path id="_160208248" class="fil6" d="M479.378 106.368c-.05-3.364-.1-6.729-.1-10.043.05 0 .1.05.2.1-.05 3.315-.1 6.629-.1 9.943z" fill="#efad84"/><path id="_160208344" d="M232.705 91.805h.151c12.906.2 12.906.2 12.906.352-4.318-.05-8.637-.05-12.957-.05-.05-.101-.1-.202-.1-.302z" fill="#efad7b"/><path id="_160208440" class="fil5" d="M232.705 91.805c0-3.566.05-7.13.1-10.696 0 3.566 0 7.13.051 10.696h-.151z" fill="#f7ceb5"/><path id="_160208512" class="fil6" d="M232.805 81.008c0-.15 0-.15 26.114-.1-.05 0-.1.05-.1.1h-26.014z" fill="#efad84"/><path id="_160201872" class="fil5" d="M427.051 68.453c0-.15 0-.15 12.906-.1-4.318 0-8.638.05-12.906.1z" fill="#f7ceb5"/><path id="_160211680" class="fil0" d="M357.498 56.752c-6.628-.803-8.336-7.935-4.218-12.554 6.528-4.119 12.906.904 10.998 8.336-1.707 2.812-3.565 3.917-6.78 4.218z" fill="#fff"/><path id="_160211752" class="fil0" d="M433.177 56.752c-5.574-1.104-8.085-5.875-5.424-11.198 3.215-3.617 8.136-4.018 11.451-.151 2.41 4.972.904 9.24-4.118 11.148-.653.051-1.305.1-1.909.201z" fill="#fff"/><path id="_160211824" class="fil6" d="M324.354 40.934a.82.82 0 01.2-.352h12.757c.05.1.1.202.2.352h-13.157z" fill="#efad84"/><path id="_160211896" class="fil2" d="M12.598 14.217v-.1h68.949c-23 0-46 .05-68.95.1z" fill="#ce4a63"/><path id="_160211656" class="fil1" d="M124.334 14.217c0-.15 0-.15 410.336-.1-136.795 0-273.591.05-410.336.1z" fill="#ef945a"/></g></svg>